<svg viewBox="0 0 208.6022 200" x="0" y="0" fill="none" xmlns="http://www.w3.org/2000/svg"><path id="Vector_8" fill-rule="evenodd" clip-rule="evenodd" d="M95.5868,156.07c0.873,0.59 1.061,1.2 2.217,1.84c0.896,0.49 2.028,1.05 3.137,1.05c0.542,0 0.283,-0.09 0.872,-0.14c-0.212,0.78 -1.32,1.93 -1.438,2.16c-0.189,0.38 -0.118,0.61 -0.283,1.01c-0.944,2.35 -4.057,2.16 -6.061,1.69l-2.783,-0.7c0.165,-0.64 0.802,-0.97 1.32,-1.58l0.472,-0.54c0.259,-0.28 0.377,-0.35 0.613,-0.68c0.849,-1.1 2.642,-2.56 1.934,-4.11zM114.1008,122.53c0,3.52 6.155,1.31 3.75,-1.72c-1.628,-2.06 -3.75,0.66 -3.75,1.72zM77.2148,78.46c0,2.37 2.382,-0.89 3.75,2.46c0.377,0.9 0.566,2.09 1.038,2.45c1.721,-0.45 1.273,-6.2 -1.439,-6.2c-1.25,0 -3.349,0.42 -3.349,1.29zM85.0208,73.44c0,1.31 0.802,2.88 2.453,2.88c2.406,0 2.547,-6.05 0,-6.05c-0.92,0 -1.415,0.11 -1.934,1.1c-0.188,0.4 -0.519,1.53 -0.519,2.07zM67.2388,73.58c0,4.79 4.552,3.57 4.41,0.04c-0.071,-1.83 -1.391,-3.64 -2.24,-3.64c-1.51,0 -2.17,2 -2.17,3.6zM45.3998,76.16c0,0.77 0.094,0.49 0.425,1.01c0.872,0 1.084,-0.19 1.603,0.12c0.472,0.25 0.873,0.63 1.274,0.89c-0.731,1.1 -1.58,1.27 -1.58,3.17c0,0.54 -0.047,0.04 0.141,0.42c0.92,-0.23 -0.259,-0.14 1.934,-1.81c0.377,-0.28 0.401,-0.37 0.802,-0.49c0.141,0.49 2.052,2.65 2.17,4.18c0.825,-0.07 0.731,-0.33 0.731,-1.15c0,-0.94 -0.401,-1.81 -0.731,-2.44c-0.283,-0.57 -0.779,-1.72 -1.132,-2.19c-3.043,-4.13 -5.637,-2.58 -5.637,-1.71zM188.0128,143.12c0,2.81 3.585,3.7 5.095,2.04c0.943,-1.04 0.636,-1.25 0.707,-2.19c0.071,-1.03 0.236,-1.47 -0.354,-2.25c-1.721,-2.25 -5.448,0.07 -5.448,2.4zM78.0878,88.84c0,1.05 0.236,1.95 0.919,2.7c0.189,0.21 0.142,0.18 0.378,0.33c1.981,1.15 3.207,-1.16 2.594,-3.74c-0.118,-0.47 -0.236,-0.65 -0.283,-1.15c0.755,-0.4 1.745,-0.44 2.028,0.59c0.944,-0.26 0.991,-0.99 0.637,-1.76c-0.896,-1.93 -3.915,-1.5 -5.118,0.19c-0.566,0.75 -1.155,1.48 -1.155,2.84zM177.5888,127.86v1c0,3.48 5.613,4.21 6.958,1.32c0.778,-1.64 0.33,-2.98 -0.779,-4.16c-0.613,-0.63 -0.306,-0.75 -0.872,-1.15c-2.052,-1.4 -5.307,0.59 -5.307,2.99zM177.3058,142.83c0,-1.4 5.307,-6.88 6.368,-7.91c0.424,-0.42 0.778,-0.77 1.226,-1.22l8.632,-7.96c1.415,-1.36 2.712,-1.05 2.712,0.4c0,0.96 -3.349,4.13 -4.151,4.93l-4.41,4.53c-2.57,2.56 -4.457,5.05 -7.287,7.42c-1.062,0.87 -3.09,2.3 -3.09,-0.19zM47.4278,25.33c-2.853,0.66 -5.778,-0.09 -5.778,2.3c0,1.58 3.538,1.15 4.623,1.15c1.91,0 1.037,-1.22 1.745,2.87c0.141,0.8 0.707,3.61 1.439,3.61c1.391,0 1.155,-2.11 1.155,-3.59l-0.165,-2.89c0.094,-0.75 0.165,-0.47 2.217,-0.82c0.684,-0.12 1.25,-0.19 1.863,-0.3c1.132,-0.24 2.335,-0.47 2.925,-1.3c1.768,-2.44 -6.415,-1.31 -7.264,-1.31c0,-1.55 -0.142,-2.61 -0.142,-4.04c0.024,-1.55 -0.165,-3.17 -1.439,-3.17c-1.485,0 -1.084,1.88 -1.249,3.24c-0.095,0.61 0.07,3.22 0.07,4.25zM23.9858,92.71c0,6.2 0.802,5.78 -1.18,6.03c-0.636,0.07 -0.99,0.14 -1.627,0.26l-4.316,1.04c-1.297,0.46 -1.273,2.06 1.345,2.06c2.287,0 5.023,-0.42 6.226,-0.42c0.165,0.73 0.188,1.78 0.306,2.58l0.967,5.1c0.543,2.46 2.076,2.51 2.076,-0.03c0,-2.2 0.236,-2.06 0.023,-3.92c-0.094,-0.91 0.071,-2.39 -0.306,-4.01c1.886,-0.17 8.962,-1.36 8.962,-3.31c0,-2.47 -6.344,0 -9.245,0c0,-1.55 -0.236,-2.59 -0.283,-4.04c-0.165,-4.37 -2.948,-3.41 -2.948,-1.34zM17.3348,73.86c-1.792,0 -1.887,-0.57 -1.887,-1.74c0,-0.77 0.519,-1.83 0.849,-2.32c0.212,-0.33 0.401,-0.64 0.661,-0.94c1.839,-2.26 3.702,-2.77 6.745,-2.77c0.825,0 0.731,1.22 0.731,1.73c0,3.01 -3.962,6.04 -7.099,6.04zM12.9948,72.43c0,-4.18 4.694,-8.22 7.665,-8.22v-0.14c-3.349,0 -6.25,0.94 -7.735,3.54c-1.463,2.56 -0.543,3.48 -0.236,4.82zM10.1178,69.98c0,2.26 1.58,4.93 3.208,5.45c1.415,0.45 -0.142,-0.35 1.768,0.54c2.972,1.41 6.84,-0.35 8.986,-2.16c0.024,-0.02 0.047,-0.05 0.071,-0.07c1.085,-0.91 2.452,-2.79 2.452,-4.18c0,-1.08 0.071,-1.22 -0.141,-2.16c0.708,-1.05 0.92,-0.63 0.401,-2.11c-0.26,-0.78 -0.495,-1.53 -1.014,-2.16c-3.727,-4.37 -12.405,-1.06 -14.552,3c-0.448,0.8 -1.179,2.68 -1.179,3.85zM5.7788,145.42c0,-1.81 1.202,-4.61 2.311,-4.61h1.014c0.684,0 2.783,1.3 3.231,1.69c0.613,0.57 1.462,2.28 1.887,3.15c0.424,0.89 0.99,2.7 1.085,3.8c0.165,1.95 0.212,2.68 -0.566,4.16c-0.684,0 -1.18,0 -1.698,0.16c-1.227,0.38 -1.368,1.3 -3.939,-0.86c-1.934,-1.6 -3.325,-5.1 -3.325,-7.49zM3.4668,144.83c0,-0.92 0.236,-1.27 0.283,-2.02c-1.226,0.89 -1.438,3.59 -1.438,5.19c0,2.51 1.745,6.2 3.679,7.14c1.344,0.65 2.217,0.37 2.972,0.35c-0.189,-0.28 -0.732,-0.68 -1.062,-0.96l-1.179,-1.13c-2.075,-2.47 -3.255,-5 -3.255,-8.57zM5.6368,139.36c-3.349,0 -5.636,4.62 -5.636,7.04c0,2.4 -0.048,3.29 0.967,5.66c1.91,4.37 6.462,7.56 11.06,5.17c0.519,-0.29 0.755,-0.52 1.416,-0.59c0.801,-0.1 1.061,-0.17 1.674,-0.49c3.42,-1.7 3.278,-7.07 1.604,-10.59l-2.547,-3.76c-1.085,-1.27 -2.052,-2.32 -3.703,-2.65c-1.014,-0.21 -1.604,-0.57 -2.594,-0.4c-1.274,0.19 -1.132,0.44 -1.698,0.63c-0.802,0.28 -0.071,-0.02 -0.543,-0.02zM164.7118,184.29c-2.618,0 -4.198,-0.04 -6.58,-1.22c-2.57,-1.29 -2.099,-1.36 -2.099,-4.11c1.132,0.76 1.863,1.2 3.326,1.6c1.556,0.4 4.929,0.99 6.556,0.75c1.486,-0.21 2.264,0.07 4.387,-0.54c0.778,-0.21 1.226,-0.49 1.934,-0.65c-0.637,2.69 -5.307,4.17 -7.524,4.17zM157.0468,175.94c0,0.68 0.849,1.36 1.368,1.66c0.684,0.4 1.321,0.66 2.099,0.92c1.109,0.35 3.892,0.96 5.024,0.82c2.146,-0.26 5.377,-0.45 6.674,-2.44c1.533,-2.37 0.731,-3.17 -2.264,-4.04c-4.646,-1.31 -12.901,0.09 -12.901,3.08zM154.1698,180.54c0,2.58 1.25,3.57 3.962,4.69c3.75,1.58 9.953,1.93 13.75,-0.61c0.872,-0.58 1.721,-1.08 2.264,-1.92c1.25,-2 0.802,-3.5 0.637,-5.1c-0.095,-0.91 1.32,-4.2 -1.628,-5.42c-0.495,-0.21 -0.872,-0.49 -1.391,-0.77c-3.679,-2.19 -17.382,-2.21 -17.311,4.83c0.024,1.67 -0.283,2.65 -0.283,4.3zM110.1858,65.81c1.462,0 2.382,-0.15 3.726,-0.33c0.495,-0.07 1.038,-0.19 1.58,-0.31c1.132,-0.23 1.934,0.54 3.184,-0.42c0.92,-0.7 0.943,-1.43 0.354,-2.28c-0.401,-0.56 -0.33,-0.3 -0.307,-1.27v-9.36c0,-1.06 -0.141,-1.69 -0.141,-2.87c0,-0.91 0.07,-2.27 -0.024,-3.14c-0.118,-0.94 0.071,-4.35 -1.863,-4.35l-5.99,0.52c-2.736,0.38 -2.854,0.92 -2.831,3.94c0.024,4.04 0.283,8.81 0.283,12.96c0,1.48 0,2.99 0,4.46c0,1.37 0.401,2.45 2.029,2.45zM188.1548,84.24c0,-1.55 0.542,-3.03 0.59,-4.47c0.566,0.15 1.179,0.69 1.58,1.04c1.273,1.15 1.839,2.09 0,2.98c-0.566,0.26 -1.392,0.45 -2.17,0.45zM185.9848,75.88c-0.731,-0.07 -2.665,-0.73 -3.184,-1.01c-3.254,-1.81 1.25,-6.06 4.34,-6.06c-0.024,0.54 -0.189,1.25 -0.26,1.76c-0.165,1.22 -0.896,4.53 -0.896,5.31zM185.3958,78.18l-1.015,5.61c-1.132,0 -1.698,-0.14 -2.9,-0.14c-4.128,0.02 -2.453,0.19 -2.453,-3.03c0,-0.73 -0.59,-1.29 -1.58,-1.29c-1.368,0 -1.415,1.57 -1.557,2.77c-0.472,3.83 0.92,3.5 2.547,3.76c0.991,0.16 3.892,1.29 5.236,1.4c-0.024,1.18 -0.59,1.58 -0.59,3.03c0,2.14 5.071,2.96 5.071,-0.14v-2.3c1.91,0 3.184,-0.56 4.339,-1.29c2.878,-1.86 2.665,-4.81 0.496,-6.97l-2.029,-1.6c-2.358,-1.41 -1.863,-0.33 -1.533,-3.12l1.038,-6.32c1.557,0 3.892,0.38 4.929,0.87c-0.165,1.97 -1.25,3.85 -0.613,4.93c0.566,0.96 3.656,2.56 3.656,-4.65c0,-1.95 -0.637,-1.76 -1.203,-1.97l-1.651,-0.94c-1.014,-0.47 -2.972,-0.96 -4.387,-0.96c0,-2.18 1.368,-4.32 -2.028,-4.32c-0.566,0 -2.028,0.87 -2.17,2.02c-0.07,0.52 0.071,1.62 0,1.99c-0.141,0.61 -0.236,0.33 -1.556,0.61c-2.076,0.43 -4.01,1.72 -5.165,3.22c-2.028,2.68 -2.052,6.27 1.934,7.87c0.707,0.25 2.311,0.89 3.184,0.96zM125.3738,37.73c0,2.53 0.141,4.65 0.141,7.04l0.142,16.13c0,0.8 0.165,0.94 0.165,1.74c0.024,1.19 -0.094,0.63 -0.495,1.38c-0.283,0.54 -0.189,0.85 0.047,1.34c1.863,0.42 5.401,-0.61 7.169,-1.2c1.062,-0.35 3.184,-1.19 4.01,-1.92c0.495,-0.43 0.542,-0.61 0.542,-1.48l-0.566,-0.17c0,-1.33 0.095,-3.19 0.236,-4.34l0.472,-13.64c0,-3.12 0.943,-6.08 -3.444,-5.59c-1.391,0.17 -2.995,0 -4.504,0.14c-0.543,0.05 -1.486,0.12 -2.123,0.22c-1.344,0.16 -0.731,-0.36 -1.792,0.35zM186.9988,116.77c1.557,0 1.25,-0.04 2.312,0.43c1.084,0.49 0.518,-0.52 4.716,1.34c1.463,0.65 2.642,1.5 3.797,2.55c0.024,0.03 0.048,0.05 0.071,0.07c1.038,0.97 1.793,1.84 2.594,3.03c2.595,3.88 2.972,7 2.972,11.58c0,2.84 -1.061,5.56 -1.91,7.6c-1.085,2.63 -2.972,4.89 -5.071,6.76c-0.519,0.47 -0.731,0.69 -1.321,1.13c-1.014,0.73 -1.839,1.2 -2.948,1.81c-6.249,3.43 -14.504,1.9 -19.362,-2.94c-0.543,-0.53 -0.802,-0.84 -1.297,-1.43c-0.401,-0.47 -0.826,-1.05 -1.156,-1.59c-0.637,-1.06 -1.297,-2.35 -1.722,-3.62c-0.943,-2.77 -0.023,-1.85 -4.103,-4.13c-2.547,-1.41 -0.779,-1.29 -2.5,-2.98c-0.59,-0.59 -0.802,-0.8 -1.274,-1.48c1.415,-0.68 4.34,-1.22 6.368,-2.02c2.901,-1.13 0.448,-0.54 2.311,-4.32c0.236,-0.45 0.425,-0.85 0.684,-1.34c0.283,-0.56 0.495,-0.8 0.826,-1.34c0.306,-0.51 0.519,-0.75 0.825,-1.19c0.118,-0.19 0.26,-0.43 0.401,-0.59c0.189,-0.26 0.354,-0.35 0.566,-0.59c3.561,-4.2 8.467,-6.74 14.221,-6.74zM157.2128,135.34c0,0 0.448,-1.76 0.99,-2.18c0.59,-0.49 1.368,-0.61 2.193,-0.84c1.628,-0.47 3.019,-1.01 4.576,-1.62c1.391,-0.54 1.037,-0.24 1.58,-1.6c0.495,-1.24 1.368,-3.12 2.052,-4.16c0.401,-0.61 0.802,-1.26 1.226,-1.8l0.708,-0.87c0.259,-0.35 0.424,-0.5 0.754,-0.82l0.779,-0.83c2.075,-1.92 3.773,-3.21 6.462,-4.36c0.448,-0.19 0.613,-0.33 1.084,-0.5c1.769,-0.63 4.151,-1.26 6.25,-1.26l3.161,0.11c0.377,0 0.566,-0.11 1.179,-0.11c0.66,0 5.33,1.99 6.25,2.56c1.839,1.15 3.348,2.44 4.693,4.1c6.132,7.54 6.132,18.41 0.684,26.23l-2.099,2.65c-7.311,8.24 -20.542,9.91 -28.797,1.64l-0.613,-0.68c-0.33,-0.37 0.189,0.24 -0.141,-0.16c-0.283,-0.33 -0.425,-0.49 -0.661,-0.78c-0.448,-0.58 -0.778,-0.98 -1.226,-1.66c-0.802,-1.22 -1.486,-2.7 -1.981,-4.06c-0.425,-1.2 -0.377,-1.86 -0.873,-2.16c-0.212,-0.14 -0.707,-0.29 -0.99,-0.45l-4.245,-3.26c-2.005,-2 -2.995,-1.69 -2.995,-3.13zM147.3538,2.89c0,1.52 2.146,1.29 3.75,1.29c0.967,0 8.703,-0.61 9.835,-0.87l-3.585,2.47c-2.429,1.8 -4.387,3.59 -6.816,5.44c-0.566,0.42 -1.108,0.87 -1.698,1.34c-2.24,1.81 -5.377,4.04 -7.547,5.87l-1.132,0.89c-1.226,0.89 -6.108,5.19 -6.839,5.57l-0.896,-2.42c-0.307,-0.8 -0.614,-1.67 -0.944,-2.51c-0.825,-2.05 -2.688,-8.41 -4.457,-9.37c-0.896,-0.49 -1.793,-0.4 -2.547,0.16c-0.307,0.24 -0.637,0.52 -0.944,0.78c-0.353,0.3 -0.636,0.44 -1.014,0.72c-0.707,0.52 -1.273,0.97 -1.981,1.48c-0.731,0.52 -1.321,0.9 -2.052,1.41l-5,3.67c-0.33,0.25 -0.613,0.49 -0.966,0.77l-3.066,2.58c-0.614,0.52 -2.029,1.76 -2.029,2.73c0,0.7 0.448,1.15 1.156,1.15c0.92,0 3.278,-2.16 4.292,-2.92l12.618,-9.32l0.849,1.91c0.283,0.68 0.542,1.22 0.825,1.9c0.307,0.73 0.519,1.22 0.826,1.9l2.57,5.94c2.43,5.28 4.104,2.39 8.514,-1.17l10.236,-7.96c0.377,-0.29 0.613,-0.45 0.99,-0.73c0.401,-0.31 0.472,-0.42 0.897,-0.71c0.448,-0.3 0.566,-0.42 0.99,-0.75l7.358,-5.91c0.331,-0.31 0.472,-0.5 0.826,-0.78l1.769,-1.55c0.306,-0.23 0.613,-0.61 0.99,-0.73c0,2.68 -0.731,7 -0.731,10.8c0,1.46 0.448,2.89 1.887,2.89c1.721,0 1.556,-2.65 1.839,-4.06c0.165,-0.8 0.26,-1.74 0.33,-2.56l0.425,-6.9c0.024,-0.99 0.825,-5.33 -2.028,-5.33l-9.08,1.03c-1.415,0.17 -3.066,0.33 -4.481,0.57c-0.991,0.18 -3.939,0.23 -3.939,1.29zM145.0428,45.08c0,-2.73 0.142,-4.98 0.142,-7.63c0,-0.9 0.141,-1.11 0.141,-1.86c0.024,-0.61 -0.047,-1.24 0.024,-1.85c0.094,-0.9 0.07,-2.91 0.99,-2.91c1.368,0 0.236,0.21 1.439,0.3c0.377,0.02 0.92,0 1.297,0c2.146,0 2.453,-0.07 4.717,0.21c1.203,0.14 2.028,-0.77 2.924,0.4c0.519,0.68 0.378,3.97 0.283,4.67c-0.118,0.78 -0.023,1.74 -0.118,2.61l-0.259,5.05c0,1.08 -0.118,1.73 -0.142,2.58c-0.118,3.59 0.048,6.9 0,10.38c0,0.79 -0.141,0.91 -0.165,1.71c-0.047,4.6 -0.849,2.46 -2.264,2.91c-2.806,0.87 -2.217,0.4 -4.882,0.78c-1.085,0.16 -2.57,0.28 -3.254,-0.1c-1.014,-0.56 -0.59,-1.6 -0.59,-2.86c0,-1.67 -0.472,-4.53 -0.118,-5.75c0.283,-0.94 -0.165,-3.32 -0.165,-4.18zM166.5988,25.78c0.495,-0.59 0.849,-0.68 1.887,-0.73l7.382,-0.28c1.132,0 1.65,0.14 2.759,0.14c1.085,0 1.745,0.09 1.863,1.03l-2.288,23.17c-0.094,0.92 -0.235,1.58 -0.306,2.45l-0.755,4.86c-0.165,0.72 -0.424,1.57 -0.66,2.2c-0.448,1.2 -0.165,1.86 -0.896,1.86c-0.614,0 -0.331,0.07 -0.472,-0.19c-0.26,-0.52 0.189,0.19 0.189,-1.1c-0.849,0.3 0.047,0.65 -3.892,1.73c-1.604,0.45 -4.599,1.46 -5.684,0.59c-1.132,-0.92 -0.212,-2.04 -0.023,-2.54c0.259,-0.7 0.354,-4.06 0.354,-4.97c0,-1.95 -0.283,-3.45 -0.283,-5.47l0.141,-11.23c0.047,-1.71 0.33,-5.86 0.684,-7.53c0.118,-0.61 0.33,-0.8 0.33,-1.25c-0.047,-3.05 -0.236,-1.69 -0.33,-2.74zM125.8218,153.33h-0.283c0,-1.13 -0.684,-3.78 -1.274,-4.91c-0.707,-1.34 0.166,-1.2 1.816,-5.07c0.614,-1.43 1.439,-2.91 2.17,-4.32l3.609,-6.2c0.377,-0.63 0.707,-1.73 1.226,-2.09c0,0.97 0.141,1.34 0.141,2.16c-1.061,0.1 -1.391,0.97 -1.745,1.74c-1.58,3.52 -3.75,11.6 -4.976,15.78c-0.212,0.68 -0.684,2.23 -0.684,2.91zM118.8648,141.38c-0.519,0.12 -1.345,0.73 -1.863,1.03l-5.566,2.96c-0.684,0.35 -1.297,0.63 -1.981,0.91c-2.147,0.9 -2.996,-0.7 -1.156,-1.85l5.401,-3.12c1.273,-0.68 2.405,-1.25 3.655,-1.97c1.25,-0.73 2.312,-1.41 3.396,-2.23c2.783,-2.14 2.453,-1.3 2.453,-3.17c-0.448,0.11 -1.179,0.75 -1.863,1.15c-2.028,1.22 -3.986,1.94 -6.297,2.81l-6.438,2.66c-0.331,0.16 -3.208,1.62 -2.736,-0.24c0.094,-0.33 0.401,-0.59 0.684,-0.8c2.217,-1.69 9.669,-4.69 12.547,-5.51c0.424,-0.12 0.66,-0.21 1.132,-0.31l0.99,-0.3c0.024,-0.05 0.071,-0.03 0.094,-0.05c-0.778,0 -1.202,-0.24 -1.886,-0.28c-3.727,-0.28 -8.868,1.38 -12.099,2.77l-4.41,2.11c-0.755,0.09 -1.085,-0.28 -0.92,-0.92c0.236,-0.86 0.377,-0.14 0.684,-1.5c0.377,-1.81 1.627,-2.63 2.005,-4.2c-0.684,0.19 -2.43,1.93 -2.996,2.49c-3.16,3.14 -4.41,5.91 -5.707,10.3c-0.613,2.09 -0.684,2.02 -0.189,4.44c0.472,2.33 1.203,5.21 3.043,6.76c1.108,0.94 2.783,1.65 4.575,1.65l1.203,-1.69l5.377,-3.29c0.637,-0.42 1.203,-0.7 1.792,-1.08c0.566,-0.38 1.18,-0.75 1.746,-1.15c0.825,-0.59 2.5,-1.81 3.042,-2.58l-3.561,2.06c-1.911,1.13 -2.571,1.65 -3.821,0.8c0,-0.94 0.212,-1.08 0.778,-1.52c1.581,-1.18 2.147,-1.46 3.444,-2.35c1.981,-1.39 3.537,-2.21 5.094,-4.16c0.283,-0.37 0.236,-0.12 0.354,-0.63zM153.4388,120.65c0.142,0.66 0.495,1.08 0.377,1.95c-0.141,1.19 -1.533,9.9 -2.146,10.54c-0.448,0.47 -2.971,1.1 -3.868,1.2c0.307,-0.64 0.661,-2.12 0.873,-2.89c0.283,-1.01 0.731,-2.02 0.731,-3.17c0,-1.25 -2.028,-2.26 -2.641,0.4l-0.684,5.94c-0.92,0 -1.25,0.11 -2.028,0.14c-0.967,0.02 -1.345,-0.05 -2.17,0.14l0.778,-4.25c0.26,-1.13 1.085,-3.55 -0.401,-3.76c-1.816,-0.28 -1.934,4.3 -1.981,5.71c-0.047,1.66 -0.189,-0.1 0,2.3c-1.556,-0.35 -0.778,0.91 -0.354,1.22c2.241,1.57 9.693,1.08 12.075,-0.49c0,0.82 0.142,0.98 0.142,1.87c0,5.99 -0.212,7.78 -1.557,13.57l-1.651,6.13c-0.283,0.96 -0.613,1.9 -0.919,2.96c-0.92,3.1 -3.043,8.31 -4.505,11.06l-2.052,3.71c-1.509,2.34 -4.033,5.61 -6.462,7.23c-0.684,0.44 -1.792,1.22 -2.641,1.41l1.863,-1.6c0.778,-0.75 1.627,-1.69 1.769,-2.84c0.071,-0.61 0,-1.62 -0.896,-1.62c-0.519,0 -0.59,0.73 -0.826,1.2c-0.589,1.26 -2.052,2.65 -3.113,3.38c-0.896,0.61 -2.972,2.27 -4.056,2.44c-3.609,0.56 -8.113,-0.82 -10.543,-2.26c-0.967,-0.56 -4.103,-2.84 -4.386,-3.82c-0.142,-0.49 -2.052,-20.29 -2.547,-22.38c0.684,-0.32 2.665,-0.65 3.584,-0.89l5.448,-1.22c1.085,-0.09 0.071,0.38 1.746,-0.28c0.778,-0.31 0.943,-0.14 1.226,-0.94c0.236,-0.7 0.165,-1.15 0.731,-1.57c0.071,0.82 2.311,6.34 2.311,6.34c0,1.19 -3.82,14.69 -1.745,14.69c0.495,0 0.519,-0.35 0.661,-0.79l4.74,-17.73c0.236,-0.77 0.472,-1.57 0.637,-2.25c0.707,-3.03 2.358,-9 3.301,-11.84l1.651,-4.41c1.628,0.38 0.873,0.14 0.873,-0.59c0,-0.68 1.156,-4.88 1.156,-6.76c0,-0.75 0.118,-0.91 0.141,-1.45c0.047,-0.75 -0.212,-0.71 -0.141,-1.41c0.047,-0.47 0.353,-0.85 0.566,-1.18c3.797,2.54 7.9,1.93 12.098,1.25c1.463,-0.24 4.411,-0.61 4.411,-1.81c0,-0.47 -0.283,-0.54 -0.732,-0.59c0.118,-0.49 0.26,-0.65 0.472,-1.1c0.307,-0.61 0.118,-0.73 0.684,-0.89zM118.5818,152.46c-1.769,0 -3.915,0.09 -5.354,0.42l2.689,-2.35c1.061,-0.89 2.264,-2.3 3.136,-3.35c1.769,-2.19 1.557,-2.26 1.84,-3.92c0.071,-0.45 1.179,-1.79 1.486,-2.26l2.004,-3.89l0.684,-3.22c0,-1.13 -0.707,-1.48 -1.25,-1.79c-2.5,-1.47 -1.957,-1.52 -5.424,-1.52c-3.49,0 -10.66,2.51 -13.018,3.73l9.834,-18.01c2.429,0.59 13.797,-1.4 17.806,-1.71l5.778,-0.59l-16.579,31.02c-0.472,0.87 -0.802,1.62 -1.25,2.49c-0.425,0.84 -0.779,1.55 -1.203,2.39c-0.401,0.89 -0.731,1.76 -1.179,2.56zM134.5008,109.29c0,1.1 1.391,1.66 2.311,2.01l0.731,0.29c0.283,0.14 0.118,0.04 0.283,0.14c-1.061,0.23 -2.665,0.58 -3.915,0.58c-0.259,0 -0.212,-0.23 -0.259,-0.3c-1.297,-1.97 -1.84,-5.59 1.132,-5.59c3.113,0 2.358,0.24 5.306,0.89l3.137,0.5c0.472,0.09 0.59,0.18 1.109,0.21c0.707,3.03 -2.382,1.97 -3.42,1.81c-0.849,-0.15 -1.533,-0.24 -2.359,-0.4c-0.707,-0.12 -1.391,-0.31 -2.193,-0.4c-0.778,-0.14 -1.863,-0.61 -1.863,0.26zM149.8308,122.67c0.212,-0.87 0.353,-1.41 0.684,-2.21l2.641,-5.73c0.637,-1.24 1.25,-2.49 1.887,-3.73c0.519,-1.03 1.486,-2.79 1.745,-3.9c-0.354,0.24 -0.519,0.57 -0.825,0.89l-2.5,2.28c-1.746,1.22 -3.467,-0.02 -3.467,-1.88c-0.496,0.12 -0.779,0.45 -1.675,0.8c-0.778,0.31 -1.085,0.21 -2.099,0.21c-0.094,1.04 -0.754,1.83 -1.344,2.42c-0.802,0.8 -1.344,0.89 -2.854,0.89c-0.07,0.78 -0.259,0.66 -0.566,1.15l-3.938,7.94c1.25,0.66 4.528,1.15 6.509,1.15c2.335,0 4.269,-0.28 5.802,-0.28zM152.7078,107.55c0,-2.3 1.297,-6.06 3.75,-6.62c0.542,0.8 1.014,1.83 1.014,3.17c-1.392,0.94 -3.726,2.91 -4.764,3.45zM147.2128,107.13c0,-1.55 0.141,-1.72 0.755,-3.27c0.707,-1.81 3.301,-5.66 5.023,-5.66c0.542,0 1.203,0.92 1.439,1.3c-3.632,2.41 -3.632,5.96 -4.576,6.52c-0.66,0.42 -1.863,1.08 -2.641,1.11zM145.0428,105.83c0.071,-0.75 0.425,-1.94 0.66,-2.65c0.166,-0.47 0.26,-0.68 0.449,-1.13c1.273,-3.21 3.702,-4.55 2.499,-4.55c-1.037,0 -1.556,-0.12 -2.216,0.4c-0.331,0.26 -0.59,0.44 -0.826,0.75c-0.519,0.66 -0.825,1.08 -1.25,1.93c-0.684,1.38 -1.486,3.16 -1.486,4.83c0.779,0.05 1.463,0.35 2.17,0.42zM142.1658,94.17c0,1.19 0.118,2.11 0.731,3.02c-1.109,2.09 -2.288,4.3 -2.311,6.79c0,1.67 -0.472,0.68 -1.746,0.56c0,-0.91 0.142,-2.02 0.26,-2.77l0.33,-9.18c0,-1.29 0.259,-7.58 0.778,-8.59c0.401,-0.8 2.571,-2.72 2.571,0.26c-0.047,4.34 -0.613,6.17 -0.613,9.91zM61.0128,119.5c-0.802,-0.03 -2.052,-0.61 -2.736,-0.89c-2.146,-0.87 -2.358,-2.07 -3.302,-4.07c-0.896,-1.9 -1.887,-7.39 -1.486,-9.29c0.331,-1.58 3.09,-2.37 4.481,-3.03c0,1.55 -0.566,4.04 0.283,5.33c1.18,-0.03 1.368,-1.22 1.581,-2.16c0.754,-3.5 1.037,-6.76 0.613,-10.24c-0.283,-2.23 -0.849,-4.18 -1.604,-5.87c-0.519,-1.15 -0.991,-2.3 -1.792,-3.24c-0.378,-0.44 -1.014,-1.03 -1.816,-0.77c-0.991,0.33 0.707,0.96 -4.198,0.56c-1.651,-0.14 -2.665,-0.56 -3.821,-1.24c-2.193,-1.29 -4.104,-2.7 -4.009,-6.25c0.094,-3.28 3.372,-5.77 7.311,-4.08c1.321,0.56 2.122,1.29 2.665,2.53c0.849,1.93 2.335,1.62 2.075,-0.61c-0.354,-3.14 -0.094,-2.02 4.41,-2.77c0.189,-0.02 1.132,-0.3 1.274,-0.3c0.755,0 -0.094,1.52 1.486,4.25c4.316,7.42 16.344,4.25 16.344,-4.77c1.061,0 1.58,-0.26 2.452,-0.28c0,1.41 0.59,3.03 1.203,3.85c0.944,1.29 1.227,1.6 2.571,2.49c0.778,0.51 2.594,1.15 3.891,1.15c2.194,0.02 2.594,-0.28 4.481,-0.73c0,0.66 0.047,1.06 -0.094,1.64c-0.189,0.83 -0.212,2.66 -0.59,4.3c-0.967,4.2 -2.5,7.96 -5.235,11.2c-1.746,2.06 -4.246,3.71 -6.981,4.27c-3.727,0.78 -7.453,-1.57 -10.637,-2.86c-0.802,-0.33 -4.127,-1.58 -4.504,-2.59c-0.637,0.03 -0.755,0.22 -1.156,0.43c0,1.29 0.425,1.95 0.849,2.77c0.472,0.91 1.014,1.88 1.675,2.65c0.023,0.02 0.117,0.12 0.141,0.16l1.344,1.53c1.793,1.78 4.128,3.03 6.627,3.62c1.109,0.25 1.25,-0.1 1.722,1.15c0.566,1.5 1.934,3.1 2.076,3.54c-3.467,0 -6.25,-0.28 -9.411,-1.01c-0.99,-0.23 -1.957,-0.49 -2.9,-0.7c-3.915,-0.89 -3.845,-1.74 -4.835,-2.12c-1.344,-0.51 -1.462,0.87 0.589,2.33c1.84,1.31 4.081,1.71 6.368,2.44c0.92,0.31 1.793,0.52 2.689,0.78c1.887,0.51 4.127,0.77 6.084,0.98c1.227,0.14 2.288,-0.09 3.302,-0.12c0.991,-0.04 4.198,-0.84 4.505,-1.99c0.141,-0.52 -0.118,-0.66 -0.684,-0.8c-0.26,-0.07 -0.708,-0.12 -1.156,-0.07c-0.613,0.09 -1.58,0.12 -2.217,0.26c-0.212,-0.31 -0.353,-0.42 -0.589,-0.73c-0.59,-0.82 -1.062,-1.71 -1.297,-2.75c0.424,0.19 1.485,0.38 2.075,0.52c0.825,0.19 1.391,0.31 2.099,0.49c4.033,0.99 3.679,2.37 4.599,5.94c0.259,1.04 1.014,3.38 1.038,4.3l-6.038,2.63c-0.495,0.16 -1.769,0.47 -2.217,0.68c-0.495,-0.92 -1.014,-2.44 -1.321,-3.57c-0.283,-1.06 -0.283,-3.29 -1.698,-3.17c-2.617,0.21 -0.377,5.82 0.283,7.04c-0.919,0 -1.839,0 -2.759,0c-1.108,0 -1.627,-0.14 -2.594,-0.14c-0.024,-0.54 -0.142,-0.7 -0.26,-1.03c-0.589,-1.83 -1.155,-3.78 -1.202,-5.73c-0.024,-0.84 -0.024,-1.74 -1.132,-1.57c-1.651,0.23 -1.132,3.03 -0.849,4.01l1.415,4.07c-1.015,-0.03 -6.156,-1.11 -6.816,-1.41c-0.519,-0.24 -0.59,-0.64 -0.779,-1.22c-0.613,-1.86 -0.966,-2.84 -1.249,-4.96c-0.166,-1.17 0.235,-2.89 -0.802,-3.26c-0.496,-0.17 -1.038,0.07 -1.321,0.47c-1.509,2.21 1.085,6.29 1.486,8.03zM186.1268,95.03c3.018,0 5.66,-0.65 7.9,-1.5c0.307,-0.12 0.543,-0.23 0.802,-0.35c0.283,-0.14 0.495,-0.21 0.802,-0.35c0.377,-0.19 0.354,-0.24 0.731,-0.42c3.113,-1.74 5.755,-4.32 7.547,-7.45c3.726,-6.45 3.467,-14.32 -1.391,-20.05c-1.557,-1.83 -3.467,-3.52 -5.92,-4.48c-2.052,-0.8 -5.259,-1.67 -7.594,-1.67c-2.854,0 -5.589,0.68 -8.042,1.93c-2.028,1.01 -3.821,2.18 -5.425,3.8c-5.047,5.05 -4.905,8.69 -5.754,10.4c-1.203,2.4 -0.26,1.01 -0.283,3.62c-0.047,5.23 2.5,10.26 6.627,13.26c2.736,1.97 6.203,3.26 10,3.26zM62.8988,73.13c0,-2.18 0.732,-3.87 1.911,-5.14c0.566,-0.59 1.108,-1.08 1.839,-1.48c1.793,-1.03 2.477,-0.85 4.505,-0.85l2.17,0.99c4.339,2.61 4.693,8.22 1.485,11.43c-4.881,4.84 -11.91,0.66 -11.91,-4.95zM95.7288,74.73c0,-1.93 0.283,-3.48 0.283,-5.33h0.283c0.023,1.2 0.731,2.32 -0.213,4.67zM90.6818,78.32c-2.925,0 -3.774,-0.24 -5.826,-2.25c-2.547,-2.52 -2.334,-6.53 0.354,-9.23c1.392,-1.39 2.901,-1.9 5.307,-1.9c1.438,0 2.594,0.72 3.466,1.29c0,1.03 0.142,1.43 0.142,2.44c0,3.12 -0.401,5.52 -0.425,7.63c0,0.77 -0.047,0.85 -0.542,1.17c-0.472,0.36 -1.745,0.85 -2.476,0.85zM81.2718,70.69v0.59c-2.76,0 -2.43,0.18 -2.642,-0.54c-0.071,-0.29 -0.094,-0.45 -0.212,-0.8c-0.212,-0.64 -0.307,-0.89 -0.59,-1.43c-1.108,-2.23 -2.217,-3.13 -4.363,-4c-1.108,-0.44 -2.146,-0.56 -3.632,-0.56c-3.113,0 -6.202,2.11 -7.476,4.65c-0.873,1.74 -0.755,2.35 -1.061,2.98l-4.198,0.14c-0.731,0.03 -0.731,0.14 -1.439,0.14c0.094,-1.22 1.156,-3.21 1.91,-4.13c3.915,-4.76 10.92,-4.18 13.656,-9.3c0.401,-0.72 1.132,-2.09 1.202,-2.98c0.401,0.12 0.189,0.05 0.449,0.28c0.66,0.69 1.108,1.74 2.995,2.92c1.32,0.82 3.089,1.54 4.74,2.04c1.981,0.58 3.491,0.75 5.825,0.98c0.85,0.1 2.052,0.24 2.901,0.43c0.731,0.14 1.911,0.51 2.477,1.01c-1.415,0 -3.019,-0.59 -5.354,0.56c-1.651,0.82 -1.132,0.52 -2.453,1.57c-1.273,1.01 -2.735,3.62 -2.735,5.45zM49.8808,67.1c0.259,-0.19 0.59,-0.66 0.896,-0.97l5.472,-4.62c2.028,-1.6 6.509,-4.44 7.759,-5.66c0.778,-0.77 1.038,-1.08 1.038,-2.56c-2.076,2.37 -3.632,3.17 -6.51,4.46c-0.778,0.36 -1.698,0.75 -2.358,1.27c-0.708,0.56 -1.25,1.06 -1.91,1.69c-0.236,0.21 -0.283,0.31 -0.519,0.49c-0.708,0.64 -0.543,0.4 -1.274,1.32c-0.849,1.08 -2.452,2.86 -2.594,4.58zM78.2288,51.25l0.731,0.28c1.392,0.31 4.694,1.81 5.755,2.49c0.92,0.59 2.641,1.62 3.632,1.86c-1.415,-2.68 -5.094,-4.91 -8.255,-4.91c-1.061,0 -0.99,0.09 -1.863,0.28zM49.1738,59.02c0.613,-0.16 0.919,-0.7 1.344,-1.13c1.203,-1.19 2.547,-2.16 3.915,-3.17c1.509,-1.12 3.868,-2.2 4.339,-2.72c0.26,-0.28 0.684,-1.38 0.425,-1.62c-0.708,-0.7 -3.892,1.5 -4.764,2.21l-1.863,1.74c-0.024,0.02 -0.095,0.11 -0.142,0.16l-1.486,1.69c-0.471,0.49 -1.627,2.18 -1.768,2.84zM50.4708,50.97c0.424,-1.83 2.429,-3.31 4.764,-3.31c0.613,0 0.518,0.73 -0.189,1.13l-3.09,1.38c-0.4,0.23 -1.084,0.68 -1.485,0.8zM74.4788,46.51c1.109,0 1.604,-0.14 2.76,-0.14c1.698,0 6.367,0.37 7.688,0.68c2.382,0.56 3.608,0.75 5.448,1.92c1.486,0.97 1.887,1.34 3.184,2.44c1.108,0.97 2.523,2.66 3.538,3.83l0.99,0.75c0,-1.22 -0.472,-3.26 -1.486,-4.13c-0.023,-0.02 -0.118,-0.09 -0.165,-0.14l-4.198,-3.31c-1.226,-0.92 -1.816,-1.24 -3.349,-1.86c-0.424,-0.16 -0.731,-0.28 -1.132,-0.46l-2.429,-0.9c-1.934,-0.4 -6.792,-0.49 -8.703,0.1c-0.683,0.21 -1.816,0.77 -2.146,1.22zM64.9278,44.07c0.754,-1.44 3.679,-3.34 5.165,-3.78c1.037,-0.31 2.57,-0.45 3.844,-0.64c2.17,-0.33 6.085,-0.04 8.254,0.45c0.637,0.14 1.085,0.28 1.769,0.4c0.613,0.12 1.297,0.21 1.91,0.4c1.156,0.33 1.864,0.96 3.09,1.38c1.203,0.42 1.674,1.25 2.264,2.37l-6.745,-2.63c-0.33,-0.14 -0.236,-0.14 -0.684,-0.32c-1.25,-0.47 -5,-0.94 -6.415,-0.94c-8.018,0 -10.212,2.77 -12.452,3.31zM173.6978,2.3c0,3.17 11.344,1.57 13.443,1.57c2.948,0 5.212,0.64 7.594,1.81c0.755,0.38 1.273,0.78 1.887,1.29c2.877,2.4 2.665,10.31 2.665,13.76c0,3.78 -1.18,7.98 -2.005,11.67c-0.873,3.82 -1.816,7.56 -2.335,11.5c-0.306,2.37 -0.872,4.89 -1.132,7.21c-0.094,0.82 -0.259,1.67 -0.306,2.44c-0.213,3.97 0.801,2.58 -2.453,2.58c-8.939,0 -16.438,3.88 -20.849,11.2c-1.25,2.07 -2.712,5.35 -2.712,7.96c-0.589,-0.05 -0.33,-0.14 -0.872,-0.14c-2.453,0 -4.363,0.28 -6.934,0.28c-1.958,0 -5.425,-0.21 -7.193,0.05c-0.849,0.12 -2.477,0.16 -3.373,0.23c-1.604,0.12 -3.443,0.17 -4.953,0.4c-4.834,0.73 -13.419,1.22 -16.438,4.09c-0.023,0.02 -0.047,0.04 -0.07,0.07l-1.227,1.64c-1.391,2.4 -2.052,5.24 -3.325,7.63c-0.92,-0.23 -2.123,-2.06 -2.76,-2.86c-0.825,-1.01 -1.603,-2.16 -2.358,-3.29c-2.689,-4.01 -3.42,-4.53 -8.467,-4.53c-0.849,0 -13.325,1.03 -14.174,1.43c0,-2.63 -0.188,-1.95 1.109,-3.5c3.726,-4.41 1.627,-7.39 1.627,-8.73c0,-0.45 1.439,-1.53 1.958,-2.21c0.636,-0.82 1.179,-1.76 1.65,-2.67c2.642,-5.29 2.406,-9.86 -0.235,-15.17c-0.92,-1.85 -2.099,-3.52 -3.585,-4.93c-1.51,-1.41 -3.09,-2.75 -4.859,-3.8c-1.91,-1.15 -6.414,-3.43 -8.679,-3.62c-0.023,-0.84 -0.33,-2.04 -0.495,-2.96c-0.165,-1.05 -0.354,-2.18 -0.471,-3.12c-0.401,-3.24 -0.614,-6.27 -0.614,-9.6c0,-5.35 2.783,-9.27 6.981,-11.76c4.528,-2.68 7.524,-3.01 12.476,-3.71c1.958,-0.28 5.826,-0.07 7.877,-0.07c2.147,0 4.246,-0.12 6.227,-0.28c4.339,-0.38 10.424,-0.94 14.81,-1.84c0.849,-0.16 2.005,-0.49 2.831,-0.49c-0.071,-0.87 -0.897,-0.94 -1.675,-1.08c-2.358,-0.4 -5.306,-0.3 -7.736,-0.23l-7.947,0.44c-0.92,0 -1.298,0.12 -2.029,0.14c-1.32,0.07 -2.853,0 -4.198,0c-6.202,0 -10.424,0.24 -15.282,1.65c-3.632,1.05 -6.698,2.74 -9.434,5.16l-1.155,1.01c-5.236,5.68 -5.095,13.12 -4.198,20.38c0.118,0.94 0.283,1.92 0.424,2.89c0.142,0.98 0.495,1.92 0.566,2.88c-0.967,-0.47 -3.703,-0.42 -5.07,-0.42c-5.425,0 -11.722,2 -15.377,5.59c-0.378,0.38 -0.614,0.45 -0.92,0.82l-2.382,2.96c-1.439,-0.33 -1.368,-0.87 -3.467,-0.87c-1.321,0 -2.453,0.45 -3.349,0.85c-7.287,3.19 -10.825,11.38 -10.825,19.01c0,1.72 0.778,4.04 1.344,5.28c1.51,3.24 2.052,2.87 2.854,3.95l-0.991,1.01c-6.202,6.36 1.628,14.81 10.543,14.81c0.683,0 1.415,-0.21 1.886,-0.42c2.076,3.07 2.594,8.36 2.594,12.23c-0.872,0.21 -1.839,0.45 -2.617,0.71c-0.849,0.28 -1.628,0.54 -2.382,0.93c-3.939,1.93 -2.477,5.99 -1.533,9.23c0.495,1.67 0.967,3.33 1.344,5c-0.59,0.05 -2.028,0.75 -2.594,1.01c-0.826,0.35 -1.604,0.75 -2.429,1.17c-4.151,2.02 -10.59,5.15 -14.104,7.54c-1.25,0.85 -2.594,2.51 -3.325,3.9c-2.17,4.22 -2.995,13.66 -2.995,18.62c0,1.76 0.259,3.28 0.283,4.88c0.023,0.73 0.023,1.1 0.094,1.62l0.472,6.43c0.023,0.42 0.118,1.01 0.188,1.55l0.59,4.58c1.179,7.23 2.5,14.95 7.146,20.68c2.358,2.89 6.344,4.2 4.882,2.49c-0.189,-0.21 -0.26,-0.26 -0.425,-0.47c-1.084,-1.29 -1.863,-2.79 -2.617,-4.3c-2.241,-4.5 -3.68,-7.06 -4.764,-12.67l-1.439,-8.95c-0.425,-2.84 -1.274,-13.9 -1.274,-16.29c0,-2.25 0.283,-4.18 0.283,-6.34l0.614,-6.01c0.707,-4.13 2.499,-6.76 5.919,-8.94c0.401,-0.26 0.708,-0.38 1.109,-0.64l4.268,-2.37c1.368,-0.68 9.953,-5.59 10.943,-5.66c0.189,2.16 2.217,2.8 3.892,3.48c7.382,3 16.131,5.68 24.174,3.59c0.448,-0.12 0.754,-0.24 1.202,-0.4c2.43,-0.92 3.562,-1.39 5.802,-2.72c0.802,-0.47 1.439,-0.78 2.146,-1.32c2.17,-1.57 1.274,-1.92 5.307,-1.92c1.816,0 7.216,1.62 8.608,2.51c0.377,0.23 0.825,0.8 1.203,1.13c0.235,0.21 0.283,0.21 0.519,0.49c1.933,2.14 2.122,1.2 0.66,4.11c-0.377,0.75 -0.943,1.48 -1.156,2.3c-1.816,0 -2.618,0.4 -4.103,1.24c-2.665,1.53 -6.533,6.29 -7.194,9.11c-2.853,-1.5 -6.108,0.8 -7.995,2.7c-1.202,1.2 -2.5,2.33 -3.584,3.62l-3.208,3.57c-0.589,0.63 -0.943,1.36 -1.745,1.71c-0.401,0.16 -0.566,0.21 -0.943,0.35c-1.557,0.63 -3.043,1.6 -4.363,2.58l-3.798,3.29c-2.358,2.35 -4.386,4.91 -6.509,7.49c-1.438,1.76 -2.736,3.43 -4.127,5.26l-2.406,3.38c-0.235,0.3 -0.235,0.37 -0.448,0.7c-0.306,0.45 -0.636,1.06 -1.085,1.36c0,-0.61 -0.094,-0.7 -0.212,-1.24l-1.745,-8.5c-1.274,-5.54 -2.311,-11.74 -2.995,-17.44l-0.354,-2.65c-0.283,-1.69 -0.519,-3.57 -0.731,-5.19c-0.118,-0.89 -0.26,-4.56 -1.344,-4.56c-2.123,0 -1.109,4.65 -0.991,5.9c0.543,5.54 1.769,14.25 3.019,19.46c0.825,3.47 1.887,7.6 2.571,10.99c0.235,1.22 0.495,2.48 0.825,3.63c0.236,0.83 0.66,1.84 0.259,2.52c-0.165,0.28 -0.306,0.47 -0.448,0.72c-0.589,0.97 -2.169,3.48 -1.957,4.68c0.118,0.75 0.684,1.03 1.25,0.82c0.589,-0.21 4.882,-6.53 5.872,-7.84l7.854,-10.19c0.637,-0.85 1.273,-1.67 1.981,-2.49l4.269,-4.67c2.311,-2.3 4.952,-4.18 7.829,-5.73c1.085,-0.59 1.486,-2.87 2.996,-3.8c1.415,-0.9 3.372,-3.15 4.646,-4.44c0.471,-0.47 0.802,-0.64 1.226,-1.08c0.755,-0.75 1.58,-1.43 2.547,-1.93c1.038,-0.54 2.17,-1.08 3.278,-1.34c-0.259,0.52 -0.235,0.99 -0.542,1.46c-0.448,0.63 -0.542,0.47 -0.708,1.46c-0.518,3.45 0.213,8.12 1.675,10.89c-1.392,0.02 -1.863,1.34 -2.524,2.25l-1.91,2.87c-0.306,0.44 -1.085,1.66 -1.203,2.11c-0.684,-0.05 -1.603,-0.73 -2.052,-1.13c-0.141,-0.11 -0.259,-0.21 -0.377,-0.33c-0.519,-0.47 -2.288,-2.6 -1.887,-3.45c0.307,-0.7 2.547,-2.53 3.208,-3.28c0.023,-0.03 0.047,-0.05 0.071,-0.07l3.584,-4.21c1.227,-1.52 0.024,-3.1 -1.792,-1.78c-1.674,1.22 -4.457,5.09 -5.495,6.62c-0.425,-0.28 -0.519,-0.42 -1.014,-0.42c-1.274,0 -1.227,2.98 -0.991,4.01c0.33,1.53 0.354,2.65 1.415,4.06c1.463,1.93 3.514,3.03 5.802,3.88c1.816,0.65 5.401,1.38 7.382,0.42c0,3.08 -0.637,4.04 -2.264,6.39c-0.33,0.49 -0.59,0.77 -0.967,1.19l-5.825,6.72c-0.095,0.11 -0.166,0.16 -0.283,0.3c-0.708,0.78 0.566,-0.63 -0.142,0.14c-0.024,0.03 -0.047,0.05 -0.071,0.07l-2.57,2.47c-0.236,0.21 -0.354,0.35 -0.566,0.59l-1.793,1.52c-0.259,0.24 -0.33,0.28 -0.637,0.52c-1.674,1.29 -3.254,2.53 -4.976,3.68l-4.056,2.45c-4.977,2.7 -9.788,4.88 -15.755,4.88c-4.881,0 -6.202,-2.44 -7.664,-2.44c-0.331,1.41 0.141,1.95 1.179,2.98c0.495,0.49 1.344,0.96 2.052,1.27c7.452,3.1 16.579,-0.94 23.183,-4.6c0.589,-0.33 0.896,-0.57 1.438,-0.87c2.76,-1.53 5.991,-3.99 8.373,-6.06c0.165,-0.14 0.141,-0.12 0.306,-0.28l5.849,-5.68c0.26,-0.29 0.26,-0.36 0.519,-0.64c0.212,-0.23 0.378,-0.35 0.59,-0.58c0.283,-0.31 0.259,-0.36 0.519,-0.64c0.212,-0.26 0.353,-0.35 0.566,-0.59l3.608,-4.48c0.354,-0.47 0.613,-0.82 0.967,-1.34c1.085,-1.59 1.91,-3.1 1.91,-5.3c0,-0.73 -0.212,-2.28 -0.424,-2.75c0.684,-0.45 1.132,-1.22 1.769,-1.83c1.603,-1.57 4.103,-4.39 4.15,-6.67c0.732,0 0.637,-0.14 1.298,-0.14c0,3.62 1.014,12.84 1.32,16.55c0.071,0.75 0.213,1.5 0.283,2.33c0.165,1.94 1.156,6.99 1.533,8.71c0.307,1.45 1.533,7.58 2.665,7.58c0.755,0 0.425,-1.76 0.425,-2.3c0,-1.27 -0.236,-2.84 -0.378,-3.92c-0.188,-1.25 -0.471,-2.59 -0.471,-3.85c0.495,0.14 0.401,0.18 0.778,0.54l0.377,0.33c3.609,3.05 8.443,4.34 13.16,4.46c2.335,0.04 1.981,1.36 6.533,-0.68c3.113,-1.39 5.307,-3.93 7.358,-6.51c1.51,-1.9 2.736,-4.22 3.868,-6.38l1.179,-2.28c1.533,-3.08 2.925,-6.39 4.01,-9.67c2.429,-7.33 6.297,-18.39 4.858,-25.78c-0.33,-1.74 -0.401,-1.36 -1.203,-2.56c0.59,-0.16 0.495,-0.77 0.731,-2.44c0.118,-0.85 0.401,-2 0.543,-2.77c0.401,-2.47 1.957,-7.28 -0.826,-8.73c0.59,-1.13 1.062,-2.35 1.651,-3.55c0.307,-0.63 0.495,-1.17 0.778,-1.81l1.699,-3.64c1.367,-3.05 2.995,-6.36 1.037,-9.65c-0.589,-0.98 -1.061,-1.76 -2.547,-1.78c-0.094,-1.22 -1.273,-2.51 -2.264,-2.93c-1.674,-0.73 -2.547,-0.05 -3.821,0.63c-0.283,-1.08 -1.603,-1.88 -2.759,-1.88c-1.58,0 -1.839,0.12 -3.184,1.01l-0.401,-7.49c0,-0.35 0.095,-0.44 0.095,-1.01v-3.59c0,-3.05 -2.996,-2.75 -4.646,-1.46c-1.439,1.13 -1.769,3.9 -1.864,6.34l-0.518,7.7c-0.283,1.93 -0.071,5.99 -0.071,8.15c-1.769,-0.84 -4.835,0.8 -4.835,0.8l-0.165,0.12c-0.024,0.02 -0.047,0.04 -0.071,0.07c-2.547,2.2 -0.188,6.85 -0.118,7.51c-2.971,0 -6.132,0.37 -9.056,0.77l-6.58,0.8c-0.802,0.05 -1.344,-0.42 -2.005,-0.42c-0.825,0 -0.99,1.13 -1.297,1.74c-0.849,1.71 -2.806,4.67 -3.184,6.34c-1.344,-0.9 -0.919,-1.25 -4.033,-2.92c-4.716,-2.51 -8.82,-3.8 -14.032,-1.83c-0.519,0.21 -0.802,0.4 -1.462,0.57c0,-1.79 -0.401,-3.74 -0.802,-5.54c-1.061,-4.7 -2.477,-4.96 -6.981,-6.01l-3.255,-0.66c-0.66,-0.12 -0.825,-0.14 -0.825,-1.76c2.759,0 4.811,-1.2 6.839,-2.7c3.656,-2.7 6.392,-6.83 8.066,-10.99c0.849,-2.14 1.745,-5.38 1.745,-7.77c4.977,0 9.764,-0.87 14.764,-0.87c4.67,0 4.905,2.02 7.028,5.1c0.637,0.91 1.344,1.57 2.028,2.44c0.684,0.87 1.486,1.57 2.264,2.34c0.614,0.62 1.203,1.04 2.288,1.04c2.217,0 2.524,-5.5 5.165,-9.25c0.189,-0.26 0.165,-0.24 0.377,-0.47c0.165,-0.19 0.095,-0.1 0.213,-0.21c0,0 0.188,-0.19 0.235,-0.21c0.354,-0.31 0.731,-0.5 1.18,-0.71c1.768,-0.73 3.985,-1.1 5.872,-1.36c3.231,-0.45 6.462,-0.66 9.717,-1.13c1.132,-0.16 2.24,-0.11 3.396,-0.21c3.915,-0.3 8.184,-0.21 12.146,-0.42c0.66,-0.02 0.919,-0.19 1.721,-0.14l3.774,0.14c0,5.19 2.665,11.43 6.792,14.53c0.472,0.35 0.896,0.68 1.415,1.06c0.425,0.3 0.967,0.58 1.439,0.87c0.542,0.3 1.108,0.56 1.627,0.82c3.585,1.78 9.127,2.13 13.184,1.03c1.415,-0.4 2.735,-0.89 3.985,-1.5c3.868,-1.93 7.925,-5.31 9.929,-9.25c1.604,-3.17 2.995,-6.53 2.995,-10.71c0,-2.04 -0.589,-5.16 -1.132,-6.64c-1.462,-3.99 -2.712,-5.38 -5.542,-8.01c-1.462,-1.36 -4.363,-3.02 -6.32,-3.49c0.047,-0.64 0.306,-1.34 0.471,-1.98c0.142,-0.58 0.189,-1.43 0.283,-2.16c1.227,-9.74 4.34,-18.66 5.991,-28.45c0.919,-5.42 1.108,-14.81 -1.911,-18.85c-1.226,-1.62 -2.24,-2.35 -4.103,-3.27c-6.651,-3.33 -11.509,-1.15 -17.641,-1.15c-0.897,0 -1.18,0.22 -2.005,0.17c-1.179,-0.1 -2.995,-0.49 -2.995,0.96z" fill="currentColor" xmlns="http://www.w3.org/2000/svg"/></svg>